<svg version="1.1" id="Calque_1" x="0" y="0" width="432" height="432">
	<g id='litte'>
	  <path id="tt" fill="#C1272D" d="M236.05 224.63c-0.5-0.98-1.65-1.16-2.5-0.45 -0.71 0.6-1.51 1.04-2.36 1.38 -4.9 1.98-14.92 1.47-20.23 1.3 -2.4-0.08-4.79-0.21-7.19-0.3 -2.97-0.11-5.92 0.05-8.84 0.69 -2.35 0.52-4.63 1.24-6.73 2.46 -0.4 0.23-0.77 0.51-1.17 0.73 -0.84 0.46-1.16 1.02-0.96 1.95 0.25 1.12 0.61 2.21 1.06 3.27 0.38 0.86 1.27 1.2 2.08 0.87 0.78-0.32 1.14-1.16 0.87-2.03 -0.12-0.4-0.28-0.79-0.4-1.19 -0.21-0.69-0.34-0.56 0.35-0.95 1.94-1.07 4.03-1.67 6.19-2.08 0.35-0.07 0.35-0.05 0.35 0.37 0.03 1.98 0.06 3.96 0.08 5.94 0.02 1.71 0.05 3.42 0.04 5.13 -0.04 3.67-0.02 7.34 0.04 11.01 0.08 4.3 0.22 8.59 0.42 12.89 0.03 0.61 0.02 0.6-0.59 0.65 -0.81 0.06-1.63-0.02-2.44 0 -0.86 0.03-1.48 0.62-1.55 1.42 -0.08 0.83 0.46 1.54 1.31 1.72 0.39 0.08 0.79 0.09 1.18 0.09 1.8 0 3.58-0.17 5.38-0.23 2.42-0.09 4.82-0.38 7.23-0.62 0.23-0.02 0.45-0.02 0.68 0.02 1 0.18 1.77-0.32 1.96-1.26 0.19-0.9-0.37-1.79-1.26-2.01 -0.74-0.19-0.74-0.19-0.77-0.92 -0.01-0.17-0.01-0.33-0.01-0.5 -0.05-2.75-0.11-5.51-0.16-8.26 -0.04-2.11-0.08-4.21-0.09-6.32 -0.01-3.32 0-6.63 0-9.95 0-2.38 0-4.75 0-7.13 0-0.56 0.02-1.13 0.04-1.69 0.02-0.62 0.03-0.62 0.64-0.6 2.65 0.1 5.29 0.19 7.94 0.21 0.9 0.01 0.79 0.06 0.74 0.8 -0.01 0.13-0.01 0.25-0.01 0.38 0.08 4.05 0.14 8.09 0.02 12.14 -0.07 2.31-0.06 4.63-0.01 6.95 0.09 4.63 0.17 9.26 0.53 13.88 0.03 0.42 0.03 0.83 0.07 1.25 0.03 0.31-0.1 0.41-0.39 0.4 -0.29-0.01-0.58 0-0.87 0.02 -0.91 0.06-1.56 0.7-1.57 1.55 -0.01 0.87 0.59 1.5 1.51 1.61 0.48 0.06 0.96 0.05 1.44 0 1.19-0.11 2.37-0.19 3.56-0.23 2.77-0.11 5.55-0.23 8.32-0.35 0.91-0.04 1.56-0.67 1.58-1.53 0.02-0.85-0.61-1.55-1.49-1.64 -0.33-0.03-0.67-0.01-1 0 -0.83 0.03-0.79 0.11-0.85-0.79 -0.36-5.56-0.58-11.12-0.62-16.7 -0.02-2.94-0.01-5.88-0.03-8.82 -0.03-2.94-0.09-5.88-0.13-8.82 -0.01-0.51 0-0.51 0.5-0.58 1.1-0.16 2.17-0.42 3.23-0.74 0.96-0.29 1.87-0.69 2.77-1.16 0.23 0.46 0.41 0.91 0.67 1.31 0.45 0.72 1.3 0.95 2.02 0.6 0.73-0.35 1.11-1.17 0.8-1.95C237.03 226.71 236.57 225.65 236.05 224.63zM204.81 265.69c-1.31 0.11-2.62 0.24-3.93 0.34 -0.43 0.03-0.44 0.01-0.46-0.44 -0.06-1.33-0.11-2.67-0.17-4 -0.1-2.33-0.2-4.67-0.3-7 0.02 0 0.05 0 0.07 0 -0.04-2.5-0.09-5-0.1-7.51 -0.02-3.27 0.01-6.55 0-9.82 -0.01-2.25-0.07-4.5-0.1-6.76 -0.01-0.77-0.07-0.69 0.71-0.72 1.31-0.06 2.63-0.02 3.94 0.02 0.45 0.02 0.46 0.03 0.45 0.45 -0.12 4.65-0.05 9.3-0.09 13.95 -0.02 2.94 0.04 5.88 0.07 8.82 0.04 3.92 0.12 7.84 0.25 11.76 0.01 0.19 0 0.38 0.01 0.56C205.15 265.58 205.05 265.67 204.81 265.69zM224.48 265.63c-0.9 0.04-1.79 0.08-2.69 0.11 -0.5 0.02-0.52 0.01-0.56-0.51 -0.16-2.12-0.32-4.24-0.4-6.37 -0.15-4.09-0.25-8.17-0.26-12.26 0-2.29 0.1-4.59 0.12-6.88 0.02-1.63-0.02-3.25-0.04-4.88 -0.01-1.36-0.03-2.71-0.04-4.07 0-0.51 0.01-0.51 0.52-0.53 0.88-0.03 1.75-0.06 2.63-0.09 0.44-0.01 0.46-0.01 0.47 0.43 0.04 1.79 0.09 3.59 0.11 5.38 0.04 3.96 0.05 7.93 0.08 11.89 0.02 4.24 0.12 8.47 0.36 12.7 0.08 1.48 0.14 2.96 0.29 4.43C225.13 265.59 225.11 265.6 224.48 265.63z"/>
	  <path id="e" fill="#C1272D" d="M296.21 226.54c-0.3-1.03-1.03-1.55-2.14-1.59 -0.79-0.03-1.58-0.06-2.38-0.09 -2.17-0.09-4.33-0.17-6.5-0.27 0 0-8.64-0.46-8.64-0.46 -1.67-0.09-3.33-0.19-5-0.28 -0.86-0.04-1.59 0.55-1.71 1.34 -0.13 0.87 0.37 1.58 1.27 1.8 0.18 0.04 0.37 0.07 0.56 0.08 0.3 0.02 0.47 0.12 0.44 0.46 -0.02 0.17 0 0.33 0 0.5 -0.01 1.63-0.02 3.25-0.04 4.88 -0.07 4.02-0.1 8.05-0.31 12.07 -0.14 2.79-0.21 5.58-0.34 8.38 -0.17 3.73-0.28 7.46-0.12 11.19 0.02 0.38-0.06 0.59-0.44 0.76 -0.61 0.27-0.89 0.81-0.84 1.48 0.04 0.7 0.42 1.17 1.07 1.4 0.29 0.1 0.6 0.17 0.91 0.2 2.18 0.22 4.36 0.39 6.55 0.48 1.69 0.07 3.38 0.07 5.07 0.12 1.4 0.04 2.79 0.12 4.19 0.16 1.07 0.04 1.84-0.43 2.33-1.38 0.21-0.41 0.33-0.85 0.43-1.3 0.33-1.42 0.51-2.87 0.78-4.31 0.05-0.25 0.03-0.5-0.03-0.74 -0.25-1-1.27-1.53-2.19-1.12 -0.62 0.28-0.86 0.8-0.97 1.43 -0.21 1.23-0.42 2.47-0.64 3.7 -0.09 0.48-0.11 0.49-0.62 0.47 -1.54-0.05-3.08-0.1-4.63-0.16 -0.06 0-0.12-0.01-0.19 0 -0.27 0.02-0.32-0.13-0.3-0.35 0.01-0.08 0-0.17 0.01-0.25 0.22-2.99 0.45-5.99 0.67-8.98 0.08-1.09 0.09-1.08 1.19-1.1 0.24 0 0.38 0.05 0.48 0.29 0.12 0.32 0.36 0.56 0.66 0.73 1.06 0.6 2.29-0.12 2.37-1.4 0.03-0.52-0.04-1.04-0.06-1.56 0.02 0 0.03 0 0.05 0 -0.02-0.44-0.03-0.88-0.06-1.31 -0.07-0.91-0.63-1.52-1.46-1.6 -0.77-0.08-1.43 0.42-1.68 1.29 -0.01 0.04-0.02 0.08-0.02 0.12 -0.01 0.15-0.1 0.21-0.24 0.24 -0.76 0.19-0.93 0.05-0.88-0.71 0.14-2.2 0.3-4.41 0.41-6.62 0.19-4.04 0.35-8.08 0.52-12.12 0.06-1.23 0.1-2.46 0.22-3.68 0.1-1.04-0.12-0.97 1.04-0.92 1.79 0.08 3.58 0.15 5.38 0.23 0.83 0.04 1.67 0.08 2.5 0.1 0.32 0.01 0.44 0.13 0.44 0.45 0 0.44 0.05 0.87-0.02 1.31 -0.14 0.87 0.44 1.61 1.3 1.77 0.99 0.18 1.94-0.56 1.98-1.68C296.6 228.8 296.54 227.65 296.21 226.54zM280.79 227.99c-0.27 3.79-0.42 7.58-0.56 11.37 -0.18 4.79-0.47 9.58-0.81 14.36 -0.27 3.81-0.63 7.6-0.82 11.41 -0.02 0.49-0.03 0.51-0.5 0.49 -0.96-0.05-1.91-0.13-2.87-0.19 -0.23-0.01-0.34-0.11-0.45-0.33 -0.29-0.56-0.34-1.15-0.33-1.76 0.01-0.44 0.01-0.87 0.01-1.31 -0.06-3.07 0.06-6.13 0.2-9.19 0.1-2.1 0.18-4.21 0.26-6.31 0.09-2.46 0.2-4.92 0.27-7.37 0.05-1.83 0.06-3.67 0.08-5.5 0.03-1.98 0.05-3.96 0.08-5.94 0.01-0.45 0.01-0.45 0.46-0.42 1.54 0.09 3.08 0.18 4.62 0.27C280.81 227.57 280.82 227.58 280.79 227.99z"/>
	  <path id="l" fill="#C1272D" d="M159.17 267.75c-0.03-0.23-0.04-0.45-0.11-0.68 -0.25-0.79-0.92-1.28-1.69-1.2 -0.77 0.08-1.36 0.68-1.43 1.5 -0.02 0.27 0.01 0.54 0.03 0.81 0.02 0.29 0.07 0.58 0.09 0.87 0.03 0.53 0.02 0.54-0.52 0.63 -1.13 0.19-2.26 0.39-3.39 0.59 -0.4 0.07-0.4 0.07-0.47-0.33 -0.03-0.21-0.05-0.41-0.07-0.62 -0.12-1.45-0.25-2.91-0.37-4.36 -0.32-3.99-0.67-7.98-0.96-11.97 -0.2-2.81-0.34-5.62-0.5-8.43 -0.26-4.54-0.53-9.08-0.85-13.61 -0.07-0.98-0.28-0.83 0.85-1.09 0.37-0.08 0.73-0.16 1.04-0.39 0.6-0.45 0.83-1.22 0.58-1.9 -0.25-0.69-0.92-1.08-1.69-1 -0.19 0.02-0.37 0.06-0.55 0.11 -1.49 0.39-2.98 0.8-4.47 1.17 -2.61 0.65-5.19 1.38-7.82 1.95 -1.01 0.22-1.59 1.01-1.42 1.89 0.22 1.08 1.25 1.46 2.05 1.25 0.52-0.14 1.06-0.22 1.66-0.34 0.02 0.17 0.05 0.3 0.06 0.42 0.2 5.07 0.63 10.12 0.9 15.18 0.44 8.14 0.81 16.29 1.22 24.44 0.02 0.46 0.03 0.92 0.11 1.37 0.25 1.43 1.26 2.09 2.68 1.77 1.2-0.28 2.35-0.71 3.53-1.05 2.91-0.83 5.85-1.5 8.85-1.92 0.58-0.08 1.16-0.16 1.72-0.31 0.85-0.23 1.36-0.96 1.21-1.79C159.26 269.7 159.29 268.72 159.17 267.75zM148.27 271.19c-1.22 0.35-2.43 0.71-3.64 1.06 -0.13-0.19-0.1-0.38-0.11-0.57 -0.27-5.41-0.55-10.83-0.81-16.24 -0.3-6.17-0.7-12.32-1.11-18.48 -0.1-1.56-0.16-3.12-0.23-4.69 -0.02-0.41-0.1-0.53 0.51-0.66 0.91-0.21 1.82-0.45 2.76-0.69 0.16 0.36 0.16 0.67 0.18 0.98 0.22 3.58 0.43 7.16 0.65 10.74 0.28 4.56 0.54 9.12 0.86 13.67 0.3 4.2 0.68 8.4 1.03 12.59 0.05 0.6 0.12 1.2 0.18 1.81C148.55 270.91 148.54 271.12 148.27 271.19z"/>
	  <path id="secondl" fill="#C1272D" d="M260.5 262.25c-0.79 0.09-1.38 0.75-1.39 1.59 0 0.25 0.03 0.5 0.04 0.75 0.03 0.5 0.03 0.5-0.5 0.54 -2.12 0.13-4.25 0.26-6.37 0.39 -0.57 0.04-0.59 0.03-0.6-0.56 -0.01-2.19-0.04-4.38-0.01-6.57 0.05-3.81 0.13-7.63 0.22-11.44 0.09-3.59 0.13-7.17 0.02-10.76 -0.08-2.77-0.15-5.54-0.13-8.32 0.01-0.48 0-0.48 0.47-0.5 0.58-0.02 1.17 0 1.75-0.06 0.94-0.09 1.56-0.86 1.47-1.76 -0.08-0.75-0.65-1.31-1.46-1.39 -0.71-0.07-1.42-0.01-2.13 0 -2.34 0.03-4.67 0.02-7-0.17 -1.27-0.1-2.54-0.15-3.81-0.11 -0.31 0.01-0.62 0.05-0.92 0.15 -0.8 0.27-1.24 0.98-1.11 1.8 0.12 0.78 0.81 1.32 1.66 1.31 0.23 0 0.46-0.04 0.69-0.04 0.48-0.01 0.49-0.01 0.52 0.47 0.17 2.83 0.23 5.67 0.19 8.51 -0.06 3.86-0.19 7.71-0.3 11.57 -0.1 3.75-0.13 7.5-0.17 11.26 -0.03 2.36-0.02 4.71-0.05 7.07 -0.01 0.57 0.17 1.11 0.2 1.67 0.06 1.06 0.63 1.66 1.69 1.7 0.46 0.02 0.92-0.01 1.37-0.05 2.41-0.21 4.82-0.4 7.6-0.52 2.1-0.18 4.55-0.34 7.01-0.43 0.4-0.01 0.79-0.02 1.19-0.06 0.94-0.09 1.59-0.68 1.73-1.61 0.16-1.06 0.04-2.13-0.15-3.17C262.07 262.65 261.31 262.16 260.5 262.25zM248.68 247.1c-0.05 2.44-0.08 4.88-0.12 7.32 -0.04 2.42-0.08 4.84-0.11 7.26 -0.01 1.06 0.03 2.13 0.04 3.19 0.01 0.9 0 0.9-0.87 0.95 -0.79 0.05-1.58 0.13-2.37 0.19 -0.42 0.03-0.44 0.03-0.44-0.38 0-2.19 0-4.38 0.01-6.57 0.01-1.4 0.01-2.79 0.04-4.19 0.08-3.38 0.12-6.75 0.25-10.13 0.08-2.15 0.11-4.29 0.16-6.44 0.08-3.55 0.08-7.09-0.12-10.63 -0.01-0.12-0.03-0.25 0.06-0.4 0.96 0.03 1.9 0.06 2.83 0.09 0.51 0.02 0.54 0.03 0.53 0.54 -0.02 2.48 0.08 4.97 0.13 7.45 0.02 1.06 0.04 2.13 0.07 3.19C248.84 241.38 248.74 244.24 248.68 247.1z"/>
	  <path id="i" fill="#C1272D" d="M180.03 266.24c-0.29-0.04-0.58-0.02-0.87 0.01 -0.54 0.06-0.56 0.06-0.62-0.48 -0.09-0.79-0.17-1.58-0.22-2.37 -0.29-4.54-0.34-9.09-0.37-13.64 -0.03-4.11-0.04-8.22-0.07-12.33 -0.01-2.04-0.06-4.09-0.08-6.13 -0.01-0.75 0.03-1.5 0.03-2.25 0-0.31 0.1-0.47 0.44-0.43 0.27 0.03 0.54 0.02 0.81 0.03 0.33 0 0.67 0 0.99-0.11 0.67-0.22 1.11-0.81 1.12-1.5 0.01-0.66-0.46-1.3-1.12-1.51 -0.32-0.1-0.66-0.1-0.99-0.1 -2.38-0.02-4.76 0-7.13-0.16 -2.34-0.16-4.67-0.11-7.01-0.02 -0.19 0.01-0.37 0.03-0.56 0.06 -0.84 0.17-1.4 0.9-1.32 1.72 0.08 0.83 0.75 1.42 1.62 1.42 0.4 0 0.79-0.03 1.19-0.03 0.44 0 0.44 0 0.45 0.46 0.18 6.47 0.43 12.93 0.53 19.09 0.22 4.39 0.34 8.48 0.62 12.56 0.17 2.37 0.28 4.75 0.42 7.12 0.03 0.52 0.03 0.52-0.5 0.66 -0.52 0.14-1.06 0.25-1.57 0.43 -0.8 0.29-1.19 1.03-1.02 1.85 0.16 0.76 0.91 1.3 1.74 1.21 0.31-0.03 0.62-0.11 0.92-0.19 1.03-0.27 2.06-0.51 3.11-0.68 3.17-0.52 6.34-1.03 9.51-1.56 0.79-0.13 1.34-0.8 1.32-1.59C181.39 266.99 180.83 266.36 180.03 266.24zM175.15 266.96c-1.2 0.18-2.39 0.37-3.58 0.56 -0.23 0.04-0.34-0.05-0.41-0.26 -0.07-0.2-0.08-0.41-0.1-0.61 -0.39-6.27-0.73-12.54-0.98-19.35 -0.17-5.72-0.35-11.98-0.53-18.23 -0.02-0.81 0-0.69 0.65-0.65 1.23 0.06 2.46 0.11 3.69 0.16 0.17 0.01 0.33 0.03 0.5 0.03 0.22 0 0.29 0.11 0.27 0.32 -0.12 0.94-0.03 1.88-0.02 2.81 0.02 3.4 0.06 6.8 0.08 10.2 0.02 3.8 0.01 7.59 0.06 11.39 0.05 3.84 0.1 7.68 0.44 11.5 0.05 0.6-0.07 1.21 0.17 1.8C175.45 266.8 175.36 266.93 175.15 266.96z"/>
	</g>
  <path fill="#808080" d="M167.43 286.22c-1.17-1.96-2.64-3.65-4.69-4.75 -2.07-1.11-4.2-1.26-6.39-0.39 -1.21 0.48-2.31 1.16-3.29 2.01 -1.39 1.2-2.5 2.63-3.49 4.15 -0.11 0.17-0.18 0.37-0.4 0.49 -0.16-0.2-0.32-0.39-0.48-0.58 -0.59-0.73-1.25-1.4-2.01-1.96 -1.52-1.11-3.2-1.57-5.08-1.18 -1.19 0.25-2.23 0.79-3.17 1.55 -1.15 0.93-2.04 2.09-2.79 3.35 -1.36 2.28-2.21 4.76-2.83 7.32 -0.48 1.99-0.75 4.01-0.99 6.1 -0.09-0.18-0.2-0.35-0.28-0.53 -1.54-3.35-3.08-6.71-4.61-10.06 -0.1-0.23-0.2-0.46-0.36-0.66 -0.42-0.53-1.11-0.74-1.74-0.53 -0.62 0.2-1.04 0.79-1.07 1.47 -0.01 0.41 0.12 0.78 0.29 1.14 2.89 6.43 5.93 12.78 8.9 19.17 0.12 0.27 0.25 0.53 0.46 0.74 0.47 0.5 1.05 0.68 1.71 0.46 0.65-0.22 1.02-0.7 1.08-1.4 0.03-0.29-0.01-0.58-0.08-0.87 -0.43-1.83-0.79-3.67-0.92-5.54 -0.19-2.78 0.01-5.54 0.63-8.27 0.53-2.35 1.26-4.63 2.47-6.72 0.56-0.96 1.2-1.86 2.05-2.58 1.68-1.43 3.36-1.4 4.98 0.09 0.81 0.74 1.43 1.63 2 2.55 0.14 0.22 0.13 0.41 0.03 0.64 -0.17 0.38-0.32 0.77-0.47 1.16 -1.15 3.05-1.7 6.19-1.18 9.45 0.31 1.92 0.97 3.71 2.15 5.27 0.41 0.54 0.87 1.01 1.45 1.37 1.45 0.91 3.04 0.54 3.95-0.92 0.38-0.61 0.58-1.29 0.71-1.99 0.42-2.25 0.22-4.49-0.2-6.71 -0.49-2.63-1.35-5.16-2.46-7.59 -0.11-0.25-0.22-0.46-0.06-0.75 0.95-1.72 2.02-3.36 3.43-4.75 0.83-0.81 1.76-1.46 2.85-1.89 1.21-0.48 2.4-0.44 3.56 0.17 0.79 0.41 1.47 0.94 2.08 1.59 0.86 0.92 1.54 1.97 2.09 3.1 1.07 2.23 1.64 4.59 1.85 7.04 0.3 3.47 0 6.92-0.4 10.36 -0.07 0.63-0.21 1.24-0.53 1.84 -0.51 0.95 0.28 2.26 1.36 2.41 0.85 0.12 1.55-0.31 1.85-1.16 0.2-0.57 0.27-1.18 0.37-1.77 0.28-1.75 0.45-3.51 0.55-5.28 0.18-3.02 0.23-6.04-0.31-9.04C169.52 290.8 168.74 288.41 167.43 286.22zM150.63 305.59c-0.33-0.31-0.55-0.69-0.76-1.07 -0.72-1.3-1.04-2.72-1.13-4.19 -0.1-1.57 0.13-3.12 0.52-4.64 0.02-0.08 0.06-0.15 0.13-0.29C150.77 298.58 151.41 303.77 150.63 305.59z"/>
  <path fill="#808080" d="M308.11 309.01c-0.07-0.17-0.17-0.34-0.26-0.5 -0.44-0.76-0.89-1.51-1.33-2.26 -1.81-3.04-3.86-5.89-6.54-8.25 -0.03-0.02-0.04-0.07-0.08-0.15 0.41-0.37 0.81-0.71 1.19-1.06 1.74-1.61 2.97-3.54 3.59-5.83 0.56-2.08 0.67-4.2 0.35-6.36 -0.5-3.4-2.22-6.46-4.9-8.61 -2.83-2.27-6.12-3.44-9.75-3.59 -0.94-0.04-1.88 0.06-2.78 0.35 -0.54 0.18-0.98 0.52-1.13 1.08 -0.15 0.54-0.26 1.11-0.16 1.68 0.15 0.85 0.34 1.7 0.42 2.57 0.33 3.56 0.75 7.1 0.98 10.67 0.09 1.46 0.18 2.91 0.28 4.37 1.14 14.9 0.88 15.3 1.48 17.69 0.18 0.71 0.89 0.69 1.5 0.58 0.08-0.01 0.16-0.04 0.23-0.08 1.06-0.56 1.16-1.19 1.12-1.81 -0.1-1.46-0.24-2.93-0.29-4.39 -0.03-0.78-0.13-1.55-0.2-2.33 -0.04-0.38 0.1-0.52 0.43-0.64 1.46-0.52 2.83-1.23 4.18-1.98 0.62-0.34 0.62-0.35 1.2 0.11 0.7 0.55 1.35 1.15 1.93 1.82 3.35 3.83 4.85 6.93 5.37 8.14 0.3 0.72 1.01 1.23 1.79 1.15 0.25-0.02 0.5-0.1 0.72-0.22C308.15 310.71 308.44 309.83 308.11 309.01zM296.63 296.24c-1.41 0.94-2.89 1.74-4.44 2.43 -0.17 0.08-0.33 0.18-0.6 0.17 -0.56-7.74-0.9-15.47-2-23.16 0.5-0.15 1-0.09 1.48-0.04 2.37 0.25 4.56 1.04 6.49 2.42 2.64 1.9 4.08 4.51 4.37 7.75 0.14 1.59 0.02 3.17-0.48 4.7 -0.39 1.19-0.99 2.24-1.83 3.17C298.73 294.66 297.73 295.51 296.63 296.24z"/>
  <path fill="#808080" d="M216.06 277.2c-0.67-0.13-1.36 0.2-1.68 0.82 -0.12 0.22-0.19 0.46-0.21 0.72 -0.11 1.37-0.26 2.74-0.33 4.11 -0.16 2.94-0.27 5.88-0.42 8.81 -0.17 3.42-0.39 6.83-0.36 10.25 0 0.35 0 0.71 0 1.2 -0.29-0.28-0.37-0.51-0.49-0.72 -2.47-4.61-5.06-9.16-7.81-13.62 -1.43-2.32-3.01-4.51-4.95-6.43 -0.27-0.26-0.54-0.52-0.85-0.74 -1.29-0.9-2.78-0.36-3.19 1.15 -0.18 0.66-0.18 1.33-0.12 1.99 0.12 1.45 0.28 2.91 0.43 4.36 0.26 2.51 0.52 5.02 0.72 7.53 0.13 1.64 0.23 3.29 0.28 4.93 0.09 2.92 0.3 5.83 0.24 8.76 0 0.27-0.01 0.54 0.05 0.81 0.19 0.81 0.82 1.33 1.61 1.31 0.77-0.02 1.41-0.59 1.53-1.4 0.04-0.27 0.04-0.54 0.04-0.81 0.04-1.54-0.04-3.09-0.1-4.63 -0.11-2.71-0.18-5.42-0.37-8.12 -0.25-3.51-0.62-7.02-1-10.52 -0.02-0.18-0.1-0.39 0.05-0.62 0.21 0.25 0.38 0.46 0.55 0.67 0.74 0.93 1.4 1.92 2.03 2.93 2.74 4.37 5.27 8.85 7.72 13.38 0.9 1.67 1.79 3.35 2.76 4.98 0.28 0.47 0.56 0.93 0.97 1.3 0.97 0.86 2.34 0.53 2.82-0.67 0.17-0.41 0.22-0.85 0.23-1.29 0.02-0.83 0.05-1.67 0.06-2.5 0.04-3.46 0-6.92 0.2-10.38 0.19-3.23 0.33-6.46 0.49-9.68 0.08-1.67 0.17-3.33 0.34-4.99 0.05-0.5 0.11-1 0.06-1.5C217.26 277.86 216.75 277.33 216.06 277.2z"/>
  <path fill="#808080" d="M235.93 299.31c-1.17-1.98-2.62-3.76-4.11-5.51 -1.48-1.72-3.02-3.4-4.44-5.18 -0.74-0.93-1.43-1.9-1.96-2.97 -0.54-1.08-0.88-2.21-0.82-3.43 0.05-1.14 0.4-2.17 1.27-2.97 0.7-0.65 1.45-0.76 2.3-0.34 0.43 0.21 0.82 0.49 1.19 0.8 1.93 1.62 2.97 3.72 3.35 6.18 0.12 0.75 0.11 1.49 0.09 2.25 -0.02 1.03 0.8 1.75 1.78 1.62 0.7-0.09 1.25-0.66 1.37-1.43 0.12-0.73 0.09-1.45 0.02-2.18 -0.28-2.54-1.08-4.88-2.65-6.92 -1-1.3-2.19-2.41-3.67-3.15 -2.11-1.06-4.28-0.74-6.02 0.86 -0.6 0.56-1.08 1.21-1.45 1.95 -0.9 1.82-0.99 3.73-0.57 5.68 0.37 1.68 1.16 3.16 2.12 4.57 0.91 1.33 1.95 2.55 3 3.77 1.6 1.85 3.25 3.64 4.73 5.58 0.98 1.28 1.86 2.62 2.52 4.09 0.57 1.28 0.84 2.61 0.72 4.02 -0.21 2.36-2.16 3.96-4.51 3.63 -2.25-0.32-3.8-1.59-4.64-3.71 -0.23-0.58-0.37-1.19-0.49-1.81 -0.26-1.29-0.38-2.58-0.13-3.9 0.19-1.02-0.62-1.84-1.65-1.79 -0.93 0.05-1.66 0.81-1.71 1.83 -0.03 0.5 0 1 0 1.5 0.02 1.81 0.37 3.57 0.98 5.27 1.19 3.33 4.34 5.68 7.79 5.86 3.15 0.16 5.95-1.61 7.07-4.47 0.53-1.35 0.65-2.75 0.49-4.18C237.7 302.81 236.94 301.02 235.93 299.31z"/>
  <path fill="#808080" d="M190.38 283.56c-2.44-2.78-8.26-3.22-11.02 0.21 -0.87 1.08-1.5 2.3-1.98 3.6 -1.29 3.54-1.89 7.21-1.91 10.97 0 0.94 0.04 1.88 0.13 2.81 0.21 2.17 0.65 4.28 1.43 6.32 0.74 1.94 1.79 3.67 3.37 5.05 2.1 1.84 4.31 1.98 6.64 0.45 1.22-0.8 2.24-1.81 3.08-2.99 2.72-3.8 4.13-8.05 4.38-12.71 0.1-1.84-0.08-3.66-0.34-5.48C193.72 288.66 192.46 285.93 190.38 283.56zM190.15 303.04c-0.56 1.6-1.3 3.11-2.24 4.53 -0.53 0.8-1.15 1.53-1.89 2.16 -0.35 0.3-0.72 0.56-1.12 0.79 -0.69 0.4-1.35 0.35-1.99-0.12 -0.92-0.66-1.59-1.53-2.14-2.5 -0.82-1.45-1.28-3.03-1.62-4.65 -0.34-1.62-0.45-3.26-0.48-4.87 0.06-3.5 0.57-6.89 1.82-10.14 1.74-4.52 6.12-4.11 7.44-2.6 1.45 1.67 2.47 3.55 2.89 5.74C191.58 295.32 191.49 299.22 190.15 303.04z"/>
  <path fill="#808080" d="M257.68 299.47c-0.72 0.11-1.22 0.63-1.33 1.38 -0.04 0.25-0.08 0.49-0.18 0.72 -0.92 2.06-1.88 4.09-3.03 6.04 -0.43 0.74-0.93 1.44-1.51 2.07 -0.66 0.71-0.83 0.68-1.24-0.22 -0.42-0.94-0.63-1.94-0.79-2.95 -0.32-2-0.46-4.02-0.55-6.04 -0.14-3.21-0.05-6.42-0.02-9.64 0-0.33 0.11-0.47 0.46-0.5 1.19-0.09 2.37-0.21 3.55-0.32 1.41-0.13 2.83-0.24 4.24-0.39 0.82-0.08 1.4-0.63 1.5-1.37 0.14-1.06-0.64-1.87-1.79-1.81 -0.94 0.05-1.87 0.16-2.8 0.24 -1.54 0.14-3.07 0.29-4.61 0.42 -0.47 0.04-0.48 0.03-0.48-0.4 0.01-2.44-0.05-4.88 0.04-7.32 0.02-0.48 0.11-0.95 0.12-1.43 0.02-0.81-0.47-1.45-1.21-1.6 -0.8-0.17-1.55 0.24-1.85 1.02 -0.13 0.33-0.18 0.69-0.2 1.04 -0.06 0.98-0.13 1.96-0.13 2.94 0.01 1.82 0 3.63 0 5.45 0 0.61 0.08 0.6-0.6 0.68 -0.08 0.01-0.17 0.02-0.25 0.02 -1.54 0.11-3.06 0.41-4.61 0.4 -0.86 0-1.49 0.72-1.51 1.54 -0.02 0.8 0.54 1.45 1.39 1.6 0.52 0.09 1.04 0.07 1.56 0.02 1.1-0.11 2.2-0.22 3.3-0.36 0.79-0.1 0.69-0.07 0.69 0.65 0 1.67 0 3.34 0 5.01 -0.05 3.11 0.02 6.22 0.41 9.31 0.17 1.41 0.4 2.81 0.86 4.16 0.34 1 0.77 1.94 1.53 2.7 0.89 0.89 1.96 1.14 3.16 0.8 0.94-0.27 1.66-0.86 2.3-1.56 0.86-0.95 1.56-2.01 2.18-3.12 1.06-1.92 2.02-3.88 2.89-5.89 0.12-0.27 0.23-0.54 0.31-0.82 0.16-0.52 0.14-1.03-0.1-1.52C259.05 299.74 258.37 299.36 257.68 299.47z"/>
  <path fill="#808080" d="M274.02 307.74c-1.54 0.15-3.07 0.33-4.62 0.24 -1.19-0.07-1.17 0.16-1.23-1.23 -0.06-1.42-0.08-2.83-0.09-4.25 -0.01-1.1 0.03-2.21 0.03-3.31 0-0.31 0.09-0.45 0.41-0.47 0.54-0.04 1.08-0.12 1.62-0.18 0.68-0.08 1.37-0.16 2.05-0.27 0.8-0.12 1.36-0.65 1.47-1.34 0.17-1.08-0.67-1.95-1.81-1.84 -1.04 0.1-2.07 0.25-3.1 0.38 -0.57 0.07-0.58 0.07-0.57-0.53 0.02-1.54 0.07-3.09 0.08-4.63 0.02-3.48 0.06-6.96 0.17-10.45 0.01-0.29 0.03-0.58 0.06-0.87 0.05-0.46 0.06-0.46 0.53-0.48 1.33-0.06 2.67-0.13 4-0.05 1.21 0.07 2.42 0.07 3.63 0.11 0.29 0.01 0.58 0 0.87-0.06 0.83-0.19 1.36-0.93 1.26-1.76 -0.09-0.8-0.75-1.42-1.58-1.4 -1.54 0.04-3.08-0.08-4.87-0.12 -1.6-0.07-3.43 0.05-5.25 0.23 -0.93 0.09-1.38 0.61-1.57 1.51 -0.29 1.36-0.3 2.73-0.33 4.11 -0.08 3.5-0.1 7.01-0.15 10.51 -0.06 4.48-0.17 3.71-0.13 13.31 0 0.96 0.04 1.92 0.13 2.87 0.18 1.92 1.15 2.99 3.05 3.33 0.81 0.14 1.62 0.14 2.43 0.12 2.44-0.06 4.86-0.37 7.28-0.66 0.4-0.05 0.78-0.15 1.11-0.38 0.73-0.51 0.95-1.43 0.53-2.21C278.65 306.52 278.13 307.33 274.02 307.74z"/>
  <path fill="#262262" d="M186.72 357.28c-0.57-3.9-0.95-7.82-1.18-11.76 -0.21-3.6-0.36-7.21-0.51-10.81 -0.12-2.98-0.19-5.96-0.31-8.94 -0.04-0.91-0.06-1.84-0.33-2.72 -0.23-0.75-0.68-1.29-1.49-1.44 -0.78-0.14-1.37 0.22-1.85 0.8 -0.32 0.39-0.54 0.84-0.77 1.28 -1.22 2.33-2.44 4.66-3.65 6.99 -1.79 3.44-3.72 6.8-5.73 10.12 -0.28 0.46-0.54 0.93-0.95 1.39 -0.3-0.39-0.57-0.72-0.83-1.07 -3.08-4.28-6.15-8.57-9.23-12.86 -1.03-1.44-2.08-2.87-3.14-4.29 -0.45-0.6-0.92-1.19-1.58-1.59 -1.32-0.79-2.78-0.09-2.99 1.44 -0.08 0.59-0.04 1.17 0.06 1.75 0.37 2.26 0.77 4.52 1.15 6.78 0.49 2.96 0.95 5.93 1.32 8.9 0.29 2.25 0.56 4.51 0.78 6.77 0.24 2.45 0.48 4.9 0.7 7.35 0.2 2.2 0.35 4.41 0.54 6.61 0.02 0.25 0.08 0.5 0.16 0.73 0.26 0.67 0.96 1.1 1.63 1.01 0.71-0.08 1.28-0.62 1.4-1.33 0.03-0.2 0.03-0.42 0.02-0.62 -0.06-0.81-0.15-1.62-0.21-2.43 -0.19-2.49-0.38-4.98-0.62-7.47 -0.33-3.48-0.7-6.96-1.13-10.44 -0.48-3.83-1.08-7.63-1.73-11.43 -0.07-0.44-0.22-0.88-0.16-1.46 0.21 0.28 0.37 0.46 0.51 0.66 1.41 1.97 2.8 3.95 4.22 5.9 2.16 2.97 4.22 6.01 6.47 8.91 0.27 0.35 0.55 0.69 0.86 1 1.08 1.06 2.3 1.09 3.47 0.12 0.31-0.25 0.57-0.55 0.82-0.86 0.44-0.54 0.81-1.11 1.16-1.7 0.8-1.34 1.6-2.68 2.39-4.04 1.83-3.13 3.49-6.36 5.19-9.56 0.1-0.18 0.15-0.42 0.48-0.59 0 0.88-0.03 1.67 0 2.46 0.18 4.4 0.36 8.79 0.58 13.19 0.1 2.06 0.25 4.12 0.43 6.18 0.04 0.53 1.22 12.19 1.81 12.8 0.55 0.58 1.21 0.76 1.87 0.48 0.65-0.27 1.01-0.89 0.96-1.67 -0.01-0.23-0.04-0.46-0.07-0.68C187.06 359.84 186.9 358.55 186.72 357.28z"/>
  <path fill="#262262" d="M231.58 356.97c-2.33-3.02-4.73-6-7.59-8.56 -0.04-0.04-0.07-0.1-0.11-0.15 0.15-0.2 0.38-0.26 0.58-0.36 2.44-1.22 4.72-2.66 6.73-4.52 1.62-1.49 3.08-3.12 4.05-5.13 1.22-2.5 1.93-5.12 1.47-7.93 -0.77-4.68-3.21-8.19-7.52-10.25 -3.79-1.81-7.77-2.06-11.85-1.08 -0.93 0.23-1.85 0.51-2.67 1.02 -0.4 0.25-0.77 0.54-0.89 1.01 -0.14 0.56-0.26 1.14-0.15 1.73 0.16 0.86 0.36 1.71 0.54 2.57 0.6 2.82 1 5.67 1.42 8.51 0.63 4.27 1.25 8.54 1.97 12.79 0.75 4.42 2.02 13.05 2.3 13.43 0.43 0.57 1.14 0.77 1.79 0.55 0.62-0.21 1.04-0.77 1.07-1.47 0.01-0.33-0.01-0.67-0.06-1 -0.21-1.4-0.44-2.8-0.66-4.2 -0.17-1.11-0.35-2.21-0.53-3.35 0.24 0.03 0.34 0.17 0.46 0.28 1.24 1.09 2.37 2.29 3.45 3.54 2.93 3.38 5.57 6.98 8.09 10.67 0.68 0.99 0.81 2.25 2.29 2.12 0.77-0.07 1.36-0.61 1.5-1.37 0.12-0.61-0.13-1.1-0.46-1.57C235.1 361.79 233.41 359.33 231.58 356.97zM223.35 344.86c-0.83 0.42-1.68 0.81-2.62 1.26 -0.36-2.25-0.72-4.38-1.05-6.53 -0.68-4.37-1.21-8.75-2.01-13.1 -0.2-1.11-0.47-2.2-0.69-3.3 -0.16-0.82-0.22-0.7 0.56-0.92 3.57-1.01 7.08-0.88 10.42 0.78 3.6 1.79 5.41 4.83 5.69 8.8 0.07 0.94-0.16 1.86-0.42 2.77 -0.5 1.78-1.36 3.35-2.58 4.74C228.6 341.71 226.11 343.47 223.35 344.86z"/>
  <path fill="#262262" d="M301.23 361.65c-1.02-4.23-2.03-8.47-3.06-12.7 -1.44-5.91-2.99-11.8-4.88-17.59 -0.92-2.83-1.92-5.64-3.26-8.32 -0.42-0.84-0.86-1.67-1.44-2.41 -0.29-0.38-0.63-0.73-1.05-0.97 -1.02-0.6-2.16-0.42-2.93 0.49 -0.26 0.31-0.45 0.65-0.61 1.01 -0.27 0.59-0.47 1.2-0.62 1.83 -0.77 3.44-1.44 6.9-2.11 10.35 -0.53 2.72-0.96 5.46-1.45 8.19 -0.59 3.35-1.38 6.65-2.12 9.96 -0.06 0.26-2.35 11.15-2.37 11.2 -0.23 0.74 0.15 1.51 0.83 1.83 0.68 0.33 1.49 0.13 1.96-0.48 0.26-0.34 0.39-0.74 0.5-1.14 0.28-0.96 0.44-1.95 0.63-2.93 0.22-1.15 0.43-2.29 0.65-3.44 0.1-0.52 0.11-0.52 0.65-0.54 0.54-0.02 1.09-0.02 1.63-0.04 3.58-0.14 7.17-0.17 10.75-0.5 0.75 0 1.5 0 2.25 0 0.3 0 0.57 0.07 0.86 0.13 0.38 0.07 0.5 0.29 0.57 0.62 1.84 7.82 1.35 7.96 2.74 8.19 0.95 0.16 1.77-0.4 1.96-1.32C301.43 362.59 301.34 362.12 301.23 361.65zM292.09 352.35c-3.56 0.24-7.12 0.3-10.69 0.42 -0.06 0-0.12 0.01-0.19 0.01 -0.47 0-0.5-0.02-0.39-0.5 0.31-1.4 0.63-2.8 0.95-4.21 0.79-3.41 1.4-6.86 1.97-10.31 0.53-3.23 1.21-6.43 1.85-9.63 0.26-1.31 0.53-2.61 0.8-3.92 0.04-0.2 0.1-0.4 0.17-0.63 0.27 0.15 0.34 0.41 0.45 0.62 1.13 2.19 1.99 4.49 2.78 6.82 1.91 5.63 3.44 11.37 4.88 17.13 0.33 1.33 0.66 2.67 1 4.1C294.42 352.23 293.26 352.27 292.09 352.35z"/>
  <path fill="#262262" d="M150.44 354.7c-2.52-7.49-4.87-15.03-7.52-22.48 -0.81-2.28-1.62-4.56-2.56-6.79 -0.2-0.48-0.43-0.95-0.77-1.35 -0.49-0.57-1.1-0.82-1.84-0.65 -0.67 0.15-1.07 0.62-1.31 1.23 -0.21 0.53-0.3 1.08-0.39 1.64 -0.43 2.82-0.84 5.65-1.29 8.47 -0.77 4.8-1.4 9.61-2.07 14.42 -0.47 3.41-1 6.81-1.61 10.19 -0.18 1-0.4 2-0.45 3.09 0 0.05 0 0.15 0 0.26 0.03 0.93 0.68 1.62 1.55 1.65 0.87 0.02 1.54-0.63 1.63-1.56 0.19-1.91 0.63-3.78 0.92-5.68 0.06-0.37 0.26-0.4 0.56-0.4 3.94-0.09 7.89-0.19 11.83-0.28 0.52-0.01 0.53-0.01 0.7 0.5 2.34 6.72 1.67 5.65 2.5 6.37 0.89 0.76 2.24 0.3 2.53-0.83 0.11-0.43 0.01-0.82-0.13-1.22C151.95 359.07 151.18 356.89 150.44 354.7zM135.34 353.5c1.08-7.77 2.12-15.48 3.37-23.19 0.25 0.13 0.26 0.38 0.33 0.57 1.43 3.98 2.81 7.98 4.13 11.99 1.06 3.23 2.12 6.45 3.18 9.67 0.06 0.2 0.13 0.39 0.23 0.7C142.79 353.33 139.08 353.41 135.34 353.5z"/>
  <path fill="#262262" d="M266.52 322.02c-0.89-0.68-1.87-1.17-2.99-1.35 -1.82-0.29-3.42 0.27-4.89 1.3 -1.11 0.78-1.97 1.79-2.71 2.92 -0.95 1.46-1.64 3.05-2.2 4.69 -1.14 3.34-1.68 6.8-1.84 10.31 -0.21 4.43-0.06 8.84 0.84 13.2 0.44 2.13 1.03 4.21 1.99 6.17 0.76 1.56 1.76 2.93 3.15 3.99 2.4 1.82 5.21 1.75 7.53-0.19 0.81-0.68 1.45-1.49 2.02-2.37 0.78-1.19 1.37-2.48 1.88-3.81 0.63-1.66 1.14-3.35 1.62-5.06 0.24-0.85-0.17-1.65-0.93-1.95 -0.79-0.3-1.65 0.06-2.04 0.86 -0.09 0.19-0.15 0.39-0.21 0.59 -0.25 0.8-0.49 1.6-0.74 2.39 -0.47 1.49-1 2.96-1.75 4.34 -0.45 0.83-0.95 1.62-1.63 2.29 -1.33 1.31-2.7 1.34-4.1 0.11 -0.83-0.73-1.43-1.62-1.92-2.6 -0.6-1.22-1.02-2.51-1.36-3.82 -0.91-3.58-1.21-7.23-1.24-10.97 0.05-2.8 0.18-5.65 0.73-8.47 0.48-2.44 1.17-4.82 2.35-7.03 0.51-0.94 1.11-1.81 1.9-2.55 0.48-0.45 1.02-0.8 1.63-1.02 0.81-0.29 1.59-0.24 2.35 0.2 0.49 0.28 0.94 0.63 1.35 1.01 1.05 0.97 1.82 2.12 2.31 3.45 0.67 1.82 1.03 3.69 1.03 5.63 0 0.33-0.01 0.67 0.09 0.99 0.21 0.71 0.8 1.18 1.51 1.19 0.73 0.01 1.35-0.48 1.55-1.22 0.06-0.22 0.07-0.45 0.07-0.68 0.01-2.32-0.38-4.57-1.14-6.75C269.91 325.46 268.5 323.52 266.52 322.02z"/>
  <path fill="#262262" d="M211.56 359.62c-0.3-0.1-0.61-0.11-0.93-0.05 -1.99 0.38-3.97 0.75-5.96 1.12 -2.01 0.37-4.01 0.77-6.05 0.98 -0.6 0.06-0.63 0.04-0.72-0.56 -0.16-1.07-0.32-2.14-0.46-3.22 -0.19-1.53-0.37-3.06-0.54-4.6 -0.05-0.44-0.03-0.46 0.41-0.48 0.71-0.04 1.42-0.07 2.13-0.1 0.17-0.01 0.34 0 0.5-0.03 0.93-0.14 1.51-0.78 1.48-1.64 -0.03-0.83-0.68-1.49-1.58-1.55 -0.28-0.02 0.18-0.04-2.87 0.11 -0.32 0.02-0.43-0.09-0.46-0.41 -0.09-1.14-0.23-2.28-0.33-3.42 -0.26-3.05-0.5-6.11-0.78-9.16 -0.22-2.43-0.55-4.85-0.93-7.26 -0.19-1.21-0.38-2.43-0.55-3.65 -0.09-0.63-0.07-0.63 0.57-0.73 0.1-0.02 0.21-0.02 0.31-0.04 1.24-0.14 2.48-0.31 3.73-0.43 2.39-0.23 4.77-0.53 7.16-0.68 0.79-0.05 1.43-0.65 1.51-1.41 0.08-0.83-0.4-1.53-1.19-1.75 -0.35-0.09-0.7-0.07-1.06-0.04 -1.41 0.14-2.82 0.29-4.23 0.43 -2.35 0.23-4.69 0.46-7.02 0.79 -0.6 0.09-1.2 0.18-1.78 0.36 -0.59 0.18-1.06 0.53-1.21 1.15 -0.11 0.44-0.18 0.91-0.13 1.36 0.17 1.51 0.38 3.02 0.63 4.52 0.61 3.64 1.02 7.31 1.31 10.99 0.18 2.25 0.34 4.49 0.55 6.73 0.39 4.13 0.78 8.26 1.34 12.38 0.14 1.01 0.25 2.03 0.49 3.02 0.42 1.76 1.38 2.51 3.21 2.53 1.07 0.01 2.12-0.15 3.17-0.34 2.65-0.47 5.29-0.96 7.93-1.45 0.78-0.14 1.56-0.27 2.33-0.48 0.72-0.19 1.16-0.85 1.14-1.54C212.64 360.42 212.2 359.82 211.56 359.62z"/>
  <path fill="#262262" d="M246.93 348.57c-0.27-2.9-0.52-5.81-0.7-8.72 -0.11-1.71-0.19-3.41-0.29-5.12 -0.2-3.64-0.53-7.28-0.63-10.92 0-0.16-0.03-0.33-0.07-0.49 -0.17-0.71-0.77-1.2-1.47-1.23 -0.67-0.03-1.3 0.41-1.55 1.06 -0.11 0.3-0.14 0.61-0.12 0.92 0.04 1.27 0.12 2.54 0.2 3.81 0.27 4.18 0.52 8.36 0.76 12.55 0.14 2.48 0.36 4.95 0.57 7.42 0.31 3.63 0.65 7.27 0.98 10.9 0.05 0.54 0.04 1.09 0.23 1.6 0.23 0.65 0.71 1.02 1.39 1.1 0.62 0.07 1.24-0.28 1.54-0.87 0.19-0.61 0.1-1.29-0.43-7.19C247.2 351.77 247.08 350.17 246.93 348.57z"/>
  <path fill="#BE1E2D" d="M178.32 82.28c-2.8 3.34-4.01 7.41-4.01 11.61 0 9.6 6.91 23.8 20.63 23.8 4.8 0 7.34-2.87 7.34-7.66 0-7.86-24.25-5.79-24.25-24.72C178.03 84.34 178.13 83.32 178.32 82.28z"/>
  <path fill="#BE1E2D" d="M253.68 82.28c2.8 3.34 4.01 7.41 4.01 11.61 0 9.6-6.91 23.8-20.63 23.8 -4.8 0-7.34-2.87-7.34-7.66 0-7.86 24.25-5.79 24.25-24.72C253.97 84.34 253.88 83.32 253.68 82.28z"/>
  <path fill="#231F20" d="M216 135.86c-3.37 0-6.11 2.65-6.11 5.92s2.74 5.92 6.11 5.92c3.38 0 6.11-2.65 6.11-5.92S219.38 135.86 216 135.86zM217.71 143.46c-1.37 0-2.49-1.08-2.49-2.41 0-1.33 1.11-2.41 2.49-2.41s2.49 1.08 2.49 2.41C220.19 142.38 219.08 143.46 217.71 143.46z"/>
  <path fill="#262262" d="M282.36 151.02c5.2 0 3.11-5.94 0.09-5.94 -2.1 0-4.25 2.54-6.01 2.54 -0.27 0-0.42-0.04-0.42-0.33 0-0.97 2.87-5.59-2.8-5.59 -2.19 0-2.45 3.41-2.45 3.73 0 1.47 0.73 2.96 0.73 3.94 0 1.75-5.29 4.96-10.97 7.92 -0.43-1.07-0.82-2.28-1.14-3.66 0.13 0.05 0.26 0.09 0.38 0.14 0.11 0.04 0.23 0.07 0.33 0.09 0.04 0.01 0.07 0.01 0.11 0.01 0.07 0.01 0.14 0.02 0.22 0.02 0.01 0 0.01 0 0.02 0 0.09 0 0.18-0.01 0.27-0.02 0.01 0 0.03-0.01 0.04-0.01 0.08-0.01 0.16-0.03 0.23-0.05 0.03-0.01 0.06-0.02 0.09-0.03 0.06-0.02 0.11-0.04 0.17-0.07 0.03-0.02 0.06-0.03 0.09-0.05 0.05-0.03 0.1-0.06 0.14-0.09 0.03-0.02 0.06-0.04 0.09-0.06 0.04-0.03 0.09-0.07 0.13-0.11 0.03-0.02 0.05-0.05 0.08-0.07 0.04-0.04 0.08-0.08 0.11-0.13 0.02-0.02 0.04-0.05 0.06-0.07 0.04-0.06 0.08-0.12 0.12-0.18 0.01-0.02 0.02-0.03 0.03-0.05 0.04-0.08 0.08-0.16 0.11-0.24 0.01-0.02 0.01-0.05 0.02-0.07 0.02-0.06 0.04-0.12 0.05-0.19 0.01-0.03 0.01-0.07 0.02-0.1 0.01-0.06 0.02-0.11 0.02-0.17 0-0.04 0-0.07 0-0.11 0-0.06 0-0.11-0.01-0.17 0-0.04-0.01-0.07-0.01-0.11 -0.01-0.06-0.02-0.12-0.04-0.17 -0.01-0.04-0.02-0.07-0.03-0.11 -0.02-0.06-0.05-0.13-0.07-0.19 -0.01-0.03-0.02-0.06-0.04-0.09 -0.05-0.09-0.1-0.18-0.16-0.27 -0.61-0.86-1.25-1.86-1.89-3.01 -0.63-1.15-1.26-2.44-1.83-3.86 -0.38-0.95-0.74-1.96-1.06-3.03 0.42-0.22 0.84-0.46 1.26-0.71 0.42-0.25 0.83-0.51 1.25-0.78 0.14-0.09 0.25-0.19 0.36-0.3 0.73-0.77 0.69-2.04-0.18-2.75 -2.73-2.23-5.19-5-7.39-8.07l0.02 0.06c-0.28-0.59-0.57-1.18-0.87-1.75 -0.11-0.21-0.22-0.42-0.33-0.63 -0.19-0.36-0.37-0.72-0.56-1.07 -0.06-0.1-0.11-0.2-0.17-0.3 -0.25-0.45-0.5-0.9-0.75-1.34 -0.06-0.1-0.11-0.19-0.17-0.28 -0.26-0.44-0.51-0.87-0.77-1.3 -0.07-0.12-0.15-0.24-0.22-0.35 -0.25-0.39-0.49-0.79-0.74-1.17 -0.09-0.14-0.18-0.27-0.27-0.41 -0.24-0.36-0.48-0.72-0.72-1.07 -0.09-0.12-0.17-0.24-0.26-0.36 -0.25-0.35-0.5-0.71-0.75-1.05 -0.11-0.15-0.22-0.29-0.33-0.43 -0.23-0.31-0.47-0.63-0.71-0.93 -0.09-0.11-0.18-0.22-0.27-0.34 -0.26-0.33-0.52-0.65-0.78-0.97 -0.07-0.09-0.15-0.17-0.22-0.25 -0.28-0.34-0.57-0.67-0.86-1 -0.07-0.08-0.14-0.15-0.21-0.23 -0.29-0.33-0.59-0.65-0.89-0.97 -0.06-0.06-0.12-0.12-0.18-0.19 -0.31-0.32-0.62-0.64-0.93-0.95 -0.08-0.08-0.16-0.15-0.24-0.23 -0.29-0.29-0.59-0.58-0.89-0.85 -0.09-0.08-0.18-0.16-0.26-0.24 -0.29-0.27-0.58-0.53-0.88-0.79 -0.09-0.08-0.18-0.15-0.27-0.22 -0.3-0.25-0.59-0.51-0.89-0.75 -0.06-0.05-0.13-0.1-0.19-0.15 -0.33-0.26-0.65-0.52-0.98-0.77 -0.08-0.06-0.16-0.12-0.24-0.18 -0.31-0.23-0.63-0.46-0.94-0.68 -0.08-0.05-0.16-0.1-0.24-0.16 -0.32-0.22-0.64-0.44-0.96-0.65 -0.09-0.06-0.19-0.11-0.28-0.17 -0.31-0.2-0.62-0.39-0.93-0.58 -0.1-0.06-0.21-0.12-0.31-0.18 -0.3-0.18-0.61-0.35-0.91-0.52 -0.09-0.05-0.19-0.1-0.29-0.15 -0.31-0.17-0.63-0.33-0.94-0.49 -0.11-0.06-0.23-0.11-0.34-0.16 -0.3-0.14-0.6-0.29-0.9-0.42 -0.12-0.06-0.25-0.1-0.38-0.16 -0.29-0.12-0.58-0.25-0.87-0.37 -0.14-0.05-0.27-0.1-0.41-0.15 -0.28-0.11-0.56-0.22-0.85-0.32 -0.14-0.05-0.29-0.09-0.43-0.14 -0.28-0.09-0.55-0.19-0.83-0.27 -0.15-0.05-0.3-0.08-0.45-0.13 -0.27-0.08-0.55-0.16-0.82-0.23 -0.16-0.04-0.32-0.08-0.48-0.11 -0.27-0.06-0.53-0.13-0.8-0.19 -0.18-0.04-0.35-0.07-0.53-0.1 -0.25-0.05-0.5-0.1-0.75-0.14 -0.19-0.03-0.37-0.06-0.56-0.08 -0.24-0.04-0.48-0.08-0.72-0.11 -0.19-0.02-0.38-0.04-0.56-0.06 -0.24-0.03-0.48-0.06-0.72-0.08 -0.2-0.02-0.4-0.03-0.61-0.04 -0.23-0.01-0.45-0.03-0.68-0.04 -0.22-0.01-0.43-0.01-0.65-0.01 -0.21 0-0.42-0.01-0.62-0.01h0c0 0-0.01 0-0.01 0 -0.23 0-0.46 0.01-0.69 0.02 -0.2 0.01-0.4 0.01-0.6 0.01 -0.23 0.01-0.47 0.03-0.71 0.05 -0.19 0.01-0.39 0.02-0.58 0.04 -0.25 0.02-0.51 0.05-0.76 0.08 -0.17 0.02-0.35 0.03-0.53 0.06 -0.27 0.04-0.53 0.08-0.8 0.12 -0.16 0.03-0.32 0.05-0.49 0.07 -0.28 0.05-0.55 0.11-0.82 0.16 -0.15 0.03-0.3 0.06-0.45 0.09 -0.28 0.06-0.57 0.13-0.85 0.2 -0.14 0.04-0.28 0.07-0.42 0.1 -0.28 0.08-0.57 0.16-0.85 0.24 -0.14 0.04-0.28 0.08-0.42 0.12 -0.3 0.09-0.59 0.19-0.89 0.29 -0.12 0.04-0.25 0.08-0.37 0.12 -0.3 0.11-0.61 0.23-0.91 0.34 -0.12 0.05-0.23 0.09-0.35 0.13 -0.32 0.13-0.63 0.26-0.94 0.4 -0.1 0.04-0.2 0.08-0.31 0.13 -0.33 0.14-0.65 0.3-0.97 0.46 -0.09 0.04-0.18 0.08-0.27 0.13 -0.32 0.16-0.64 0.33-0.96 0.5 -0.09 0.05-0.18 0.09-0.28 0.14 -0.33 0.18-0.66 0.37-0.99 0.56 -0.08 0.05-0.16 0.09-0.23 0.13 -0.32 0.19-0.65 0.4-0.97 0.6 -0.08 0.05-0.16 0.1-0.24 0.15 -0.33 0.22-0.66 0.44-0.99 0.67 -0.07 0.05-0.14 0.09-0.21 0.14 -0.32 0.23-0.64 0.46-0.96 0.7 -0.07 0.06-0.15 0.11-0.23 0.17 -0.34 0.25-0.67 0.52-1 0.79 -0.06 0.04-0.11 0.09-0.17 0.13 -0.32 0.26-0.64 0.53-0.95 0.8 -0.07 0.06-0.14 0.11-0.21 0.17 -0.32 0.28-0.64 0.57-0.96 0.86 -0.06 0.06-0.12 0.11-0.18 0.17 -0.32 0.3-0.64 0.61-0.96 0.93 -0.05 0.05-0.11 0.1-0.16 0.16 -0.32 0.32-0.63 0.64-0.94 0.97 -0.05 0.06-0.11 0.11-0.17 0.17 -0.32 0.34-0.64 0.69-0.95 1.04 -0.05 0.05-0.09 0.1-0.14 0.16 -0.29 0.33-0.58 0.67-0.86 1 -0.07 0.08-0.14 0.16-0.21 0.25 -0.28 0.34-0.56 0.69-0.84 1.04 -0.07 0.09-0.14 0.17-0.21 0.26 -0.25 0.32-0.49 0.64-0.73 0.96 -0.1 0.13-0.2 0.26-0.3 0.4 -0.25 0.35-0.5 0.7-0.75 1.05 -0.09 0.12-0.17 0.24-0.26 0.36 -0.27 0.39-0.53 0.79-0.8 1.19 -0.06 0.1-0.13 0.19-0.19 0.28 -0.22 0.33-0.43 0.68-0.64 1.02 -0.11 0.17-0.22 0.34-0.32 0.51 -0.17 0.28-0.34 0.58-0.52 0.87 -0.14 0.24-0.29 0.47-0.43 0.72 -0.22 0.38-0.44 0.78-0.65 1.17 -0.09 0.16-0.18 0.31-0.26 0.47 -0.19 0.35-0.38 0.71-0.56 1.07 -0.11 0.21-0.22 0.41-0.33 0.63 -0.29 0.57-0.58 1.16-0.87 1.75l0.02-0.06c-2.2 3.08-4.66 5.84-7.39 8.07 -0.87 0.71-0.91 1.98-0.18 2.75 0.1 0.11 0.22 0.21 0.36 0.3 0.42 0.27 0.83 0.53 1.25 0.78 0.42 0.25 0.84 0.49 1.26 0.71 -0.32 1.07-0.68 2.08-1.06 3.03 -0.57 1.43-1.2 2.72-1.83 3.86 -0.63 1.15-1.28 2.15-1.89 3.01 -0.06 0.09-0.12 0.18-0.16 0.27 -0.01 0.03-0.03 0.06-0.04 0.09 -0.03 0.06-0.05 0.13-0.07 0.19 -0.01 0.04-0.02 0.07-0.03 0.11 -0.01 0.06-0.03 0.12-0.04 0.18 0 0.04-0.01 0.07-0.01 0.11 0 0.06-0.01 0.12-0.01 0.17 0 0.04 0 0.07 0 0.11 0 0.06 0.01 0.12 0.02 0.17 0.01 0.03 0.01 0.07 0.02 0.1 0.01 0.07 0.03 0.13 0.06 0.19 0.01 0.02 0.01 0.04 0.02 0.07 0.03 0.09 0.07 0.17 0.11 0.25 0.01 0.02 0.02 0.03 0.03 0.05 0.04 0.06 0.08 0.12 0.12 0.18 0.02 0.03 0.04 0.05 0.06 0.07 0.04 0.05 0.08 0.09 0.12 0.13 0.02 0.03 0.05 0.05 0.08 0.07 0.04 0.04 0.08 0.07 0.13 0.11 0.03 0.02 0.06 0.04 0.09 0.06 0.05 0.03 0.09 0.06 0.14 0.09 0.03 0.02 0.06 0.04 0.09 0.05 0.05 0.03 0.11 0.05 0.17 0.07 0.03 0.01 0.06 0.02 0.09 0.03 0.08 0.02 0.15 0.04 0.23 0.06 0.01 0 0.03 0.01 0.04 0.01 0.09 0.01 0.18 0.02 0.27 0.02 0.01 0 0.01 0 0.02 0 0.07 0 0.14-0.01 0.22-0.02 0.04 0 0.07 0 0.11-0.01 0.11-0.02 0.22-0.05 0.33-0.09 0.12-0.04 0.25-0.09 0.38-0.14 -0.31 1.33-0.68 2.51-1.1 3.56 -5.6-2.93-10.78-6.09-10.78-7.82 0-0.98 0.73-2.47 0.73-3.94 0-0.32-0.26-3.73-2.45-3.73 -5.67 0-2.8 4.62-2.8 5.59 0 0.29-0.15 0.33-0.42 0.33 -1.75 0-3.91-2.54-6.01-2.54 -3.02 0-5.11 5.94 0.09 5.94 0.57 0 2.68-0.08 2.68 0.96 0 0.88-3.11 0.69-3.11 3.27 0 2.02 2.43 3.23 3.27 3.23 2.92 0 2.56-4.53 4.51-4.53 4.93 0 9.02 3.02 12.77 6.29 -0.59 0.95-1.24 1.77-1.92 2.52 -0.9 0.99-0.47 2.58 0.78 3.03 1.25 0.45 2.52 0.83 3.8 1.15l0-0.04c0.35 2.87 0.28 5.08-0.69 7.89 -0.05 0.15-0.09 0.3-0.12 0.46 -0.01 0.05-0.01 0.1-0.02 0.15 -0.02 0.1-0.03 0.2-0.04 0.3 0 0.06 0 0.12 0 0.18 0 0.09 0 0.18 0 0.27 0 0.06 0.01 0.12 0.02 0.18 0.01 0.08 0.02 0.17 0.04 0.25 0.01 0.06 0.02 0.12 0.04 0.18 0.02 0.08 0.04 0.16 0.07 0.24 0.02 0.06 0.04 0.12 0.06 0.17 0.03 0.08 0.06 0.15 0.1 0.23 0.02 0.05 0.05 0.11 0.08 0.16 0.04 0.08 0.08 0.15 0.13 0.22 0.03 0.05 0.06 0.1 0.09 0.14 0.05 0.07 0.1 0.14 0.16 0.21 0.03 0.04 0.06 0.08 0.1 0.12 0.07 0.08 0.14 0.15 0.22 0.22 0.03 0.03 0.05 0.05 0.08 0.08 0.1 0.09 0.21 0.18 0.33 0.26 0.03 0.02 0.05 0.03 0.08 0.05 0.09 0.06 0.18 0.12 0.28 0.17 0.05 0.02 0.09 0.04 0.14 0.06 0.08 0.04 0.16 0.08 0.25 0.11 0.05 0.02 0.11 0.04 0.16 0.05 0.08 0.03 0.16 0.05 0.25 0.07 0.06 0.01 0.12 0.02 0.18 0.04 0.08 0.02 0.17 0.03 0.25 0.04 0.06 0.01 0.13 0.01 0.19 0.01 0.04 0 0.08 0.01 0.13 0.01 0.05 0 0.11-0.01 0.16-0.01 0.04 0 0.09 0 0.13-0.01 0.15-0.01 0.29-0.03 0.44-0.06 0.04-0.01 0.09-0.02 0.13-0.03 0.04 0.15 0.08 0.3 0.11 0.45 0.03 0.15 0.07 0.29 0.1 0.44 0.03 0.18 0.05 0.37 0.07 0.56 0.02 0.15 0.04 0.3 0.05 0.46 0.01 0.1 0.01 0.21 0.01 0.31h0c0 0.09 0.01 0.19 0.01 0.28 0 0.16 0.01 0.32 0.01 0.48 0 0.2-0.02 0.41-0.03 0.62 0 0.02 0 0.03 0 0.04 -0.01 0.14-0.01 0.29-0.02 0.44 -0.02 0.21-0.04 0.43-0.07 0.64 -0.02 0.15-0.03 0.31-0.05 0.46 0 0.01 0 0.01 0 0.02h0c-0.03 0.22-0.07 0.44-0.1 0.65 -0.02 0.14-0.04 0.29-0.07 0.43 -0.02 0.11-0.05 0.23-0.07 0.34l0 0c-0.02 0.12-0.05 0.25-0.08 0.37 -0.02 0.12-0.05 0.25-0.07 0.37 -0.06 0.28-0.13 0.55-0.2 0.82l0 0c-0.02 0.07-0.03 0.14-0.05 0.2 -0.04 0.14-0.05 0.28-0.06 0.42 0 0.02 0 0.04 0 0.05 0 0.13 0.01 0.26 0.04 0.38 0.01 0.02 0.01 0.04 0.02 0.07 0.03 0.1 0.06 0.2 0.1 0.3h-0.01c0.01 0.02 0.02 0.03 0.02 0.05 0.01 0.02 0.02 0.04 0.03 0.05 0.06 0.11 0.12 0.22 0.2 0.32 0.01 0.01 0.01 0.01 0.02 0.02 0.08 0.1 0.17 0.18 0.26 0.26 0.01 0.01 0.02 0.02 0.03 0.03 0.1 0.08 0.2 0.14 0.31 0.2 0.02 0.01 0.04 0.02 0.06 0.03 0.11 0.05 0.23 0.1 0.35 0.13 0.02 0.01 0.04 0.01 0.07 0.02 0.12 0.03 0.25 0.04 0.38 0.05 0.01 0 0.01 0 0.02 0 0.01 0 0.02 0 0.03 0 0.14 0 0.29-0.02 0.44-0.05 0.39-0.1 0.79-0.2 1.18-0.31 0.78-0.22 1.56-0.46 2.33-0.74 0.03-0.01 0.05-0.02 0.08-0.03 0.36-0.13 0.71-0.27 1.06-0.41 0.14 0.14 0.29 0.27 0.44 0.41 0.58 0.54 1.18 1.06 1.82 1.56 0.27 0.21 0.54 0.41 0.81 0.61 0.38 0.28 0.77 0.54 1.17 0.81 0.83 0.55 1.69 1.07 2.59 1.56 0.93 0.5 1.89 0.98 2.88 1.42 1.43 0.64 2.92 1.21 4.47 1.71 -2.39 3.35-3.92 8.65-0.41 16.02 -6.03-1.74-11.75 3.76-0.36 3.76 1.76 0 5.48-0.69 5.48-2.38 0-1.65-3.85-5.15-3.85-9.07 0-3.01 1.28-5.44 2.67-7.32 3.53 0.89 7.26 1.48 11.05 1.75 0.54 0.04 1.09 0.07 1.63 0.09 1.08 0.05 2.17 0.08 3.25 0.08h0c0.05 0 0.11 0 0.16 0 1.58 0 3.16-0.06 4.72-0.17 0.56-0.04 1.11-0.09 1.66-0.14 0.42-0.04 0.85-0.08 1.27-0.13 0.53-0.06 1.07-0.13 1.6-0.2 0.1-0.01 0.2-0.03 0.3-0.04 1.09-0.16 2.18-0.34 3.25-0.56 0.54-0.11 1.07-0.22 1.59-0.34 0.53-0.12 1.05-0.25 1.57-0.38 1.4 1.89 2.7 4.33 2.7 7.37 0 3.91-3.85 7.42-3.85 9.07 0 1.69 3.73 2.38 5.48 2.38 11.39 0 5.67-5.5-0.36-3.76 3.52-7.42 1.95-12.73-0.46-16.08 1.48-0.49 2.91-1.04 4.29-1.65l0 0c0.99-0.44 1.95-0.91 2.88-1.42l0 0c0.9-0.49 1.76-1.01 2.59-1.56l0 0c0.69-0.45 1.35-0.92 1.98-1.42 0 0 0 0 0 0 0.64-0.5 1.24-1.02 1.82-1.56 0.15-0.14 0.3-0.27 0.44-0.41 0.35 0.14 0.71 0.28 1.06 0.41 0.03 0.01 0.05 0.02 0.08 0.03 0.77 0.28 1.54 0.52 2.33 0.74 0.39 0.11 0.78 0.21 1.18 0.31 0.15 0.04 0.29 0.05 0.44 0.05 0.01 0 0.02 0 0.03 0 0.01 0 0.01 0 0.02 0 0.13 0 0.26-0.02 0.38-0.04 0.02 0 0.04-0.01 0.07-0.01 0.12-0.03 0.24-0.07 0.35-0.12 0.02-0.01 0.04-0.02 0.06-0.03 0.11-0.06 0.22-0.12 0.31-0.2 0.01-0.01 0.02-0.02 0.03-0.02 0.1-0.08 0.18-0.17 0.26-0.26 0.01-0.01 0.01-0.01 0.02-0.02 0.08-0.1 0.14-0.2 0.2-0.32 0.01-0.02 0.02-0.04 0.03-0.05 0.01-0.02 0.02-0.03 0.02-0.05h-0.01c0.04-0.1 0.08-0.2 0.1-0.3 0.01-0.02 0.01-0.04 0.01-0.07 0.03-0.12 0.04-0.25 0.04-0.38 0-0.02 0-0.04 0-0.05 0-0.14-0.02-0.28-0.06-0.42 -0.02-0.06-0.03-0.13-0.05-0.2l0 0c-0.07-0.27-0.14-0.54-0.2-0.82 -0.02-0.11-0.04-0.22-0.07-0.33 -0.03-0.13-0.05-0.26-0.08-0.4h0c-0.02-0.11-0.05-0.22-0.07-0.34 -0.02-0.14-0.04-0.28-0.07-0.42 -0.04-0.22-0.07-0.43-0.1-0.65h0c0 0 0-0.01 0-0.02 -0.02-0.15-0.03-0.31-0.05-0.46 -0.02-0.21-0.05-0.43-0.07-0.64 -0.01-0.15-0.01-0.29-0.02-0.43 0-0.01 0-0.03 0-0.04 -0.01-0.21-0.02-0.41-0.03-0.62 0-0.16 0.01-0.32 0.01-0.48 0-0.09 0-0.19 0.01-0.28h0c0.01-0.1 0-0.21 0.01-0.31 0.01-0.16 0.04-0.31 0.05-0.46 0.02-0.19 0.04-0.38 0.07-0.56 0.01-0.08 0.04-0.15 0.05-0.23 0.01-0.07 0.03-0.14 0.05-0.21 0.04-0.15 0.06-0.31 0.1-0.45 0 0 0 0 0 0l0.04-0.12c-0.01 0.04-0.03 0.08-0.04 0.13 0 0 0.01 0 0.01 0 0.04 0.01 0.09 0.02 0.13 0.03 0.15 0.03 0.3 0.05 0.44 0.06 0.04 0 0.09 0.01 0.13 0.01 0.05 0 0.11 0.01 0.16 0.01 0.04 0 0.08-0.01 0.13-0.01 0.06 0 0.13-0.01 0.19-0.01 0.09-0.01 0.17-0.02 0.25-0.04 0.06-0.01 0.12-0.02 0.18-0.04 0.08-0.02 0.17-0.04 0.25-0.07 0.06-0.02 0.11-0.03 0.17-0.05 0.08-0.03 0.17-0.07 0.25-0.11 0.05-0.02 0.1-0.04 0.14-0.06 0.09-0.05 0.18-0.11 0.27-0.17 0.03-0.02 0.06-0.03 0.09-0.05 0.11-0.08 0.22-0.16 0.32-0.25 0 0 0 0 0.01 0 0.03-0.03 0.06-0.06 0.09-0.09 0.07-0.07 0.14-0.14 0.21-0.21 0.04-0.04 0.07-0.08 0.1-0.13 0.05-0.07 0.11-0.13 0.16-0.21 0.03-0.05 0.06-0.1 0.09-0.15 0.04-0.07 0.08-0.14 0.12-0.21 0.03-0.05 0.05-0.11 0.08-0.16 0.03-0.07 0.07-0.15 0.09-0.22 0.02-0.05 0.04-0.11 0.06-0.17h0c0 0 0-0.01 0-0.01 0.02-0.08 0.05-0.16 0.06-0.24 0.02-0.06 0.03-0.12 0.04-0.18 0.02-0.08 0.03-0.17 0.03-0.25 0.01-0.06 0.01-0.12 0.02-0.18 0.01-0.09 0-0.18 0-0.27 0-0.06 0-0.12 0-0.18 0-0.04-0.01-0.07-0.01-0.11 -0.01-0.06-0.02-0.13-0.03-0.19 -0.01-0.05-0.01-0.1-0.02-0.15 -0.03-0.15-0.07-0.3-0.12-0.46 -0.09-0.26-0.16-0.51-0.24-0.76 -0.14-0.48-0.26-0.96-0.35-1.42 -0.1-0.52-0.18-1.04-0.22-1.56 -0.04-0.47-0.06-0.94-0.06-1.42 0-0.51 0.02-1.02 0.07-1.56 0.03-0.38 0.07-0.77 0.12-1.17l0 0.04c0.35-0.09 0.7-0.19 1.04-0.29h0c0.92-0.26 1.84-0.54 2.75-0.86 0.39-0.14 0.68-0.39 0.9-0.7 0.29-0.41 0.41-0.92 0.33-1.42 -0.06-0.33-0.19-0.64-0.44-0.91 -0.19-0.21-0.37-0.42-0.56-0.64 -0.37-0.44-0.72-0.91-1.06-1.42 -0.07-0.11-0.14-0.22-0.22-0.33 3.79-3.31 7.92-6.41 12.91-6.41 1.96 0 1.59 4.53 4.51 4.53 0.84 0 3.27-1.21 3.27-3.23 0-2.58-3.11-2.39-3.11-3.27C279.68 150.94 281.79 151.02 282.36 151.02zM253.83 178.58c-0.02 0.06-0.04 0.12-0.05 0.19 -0.11 0.39-0.19 0.79-0.26 1.19h-38.73v-1.42h39.05L253.83 178.58zM195.54 133.66c0-10.95 9.16-19.83 20.46-19.83 11.3 0 20.46 8.88 20.46 19.83 0 10.95-9.16 19.83-20.46 19.83C204.7 153.5 195.54 144.62 195.54 133.66zM210.59 179.39l-1.53-0.8 -1.53 0.8 0.29-1.7 -1.24-1.21 1.71-0.25 0.77-1.55 0.77 1.55 1.71 0.25 -1.24 1.21L210.59 179.39zM205.21 172.72l-1.53-0.8 -1.53 0.8 0.29-1.7 -1.24-1.21 1.71-0.25 0.77-1.55 0.77 1.55 1.71 0.25 -1.24 1.21L205.21 172.72zM203.23 179.38l-1.53-0.8 -1.53 0.8 0.29-1.7 -1.24-1.21 1.71-0.25 0.77-1.55 0.77 1.55 1.71 0.25 -1.24 1.21L203.23 179.38zM198.2 172.94l-1.53-0.8 -1.53 0.8 0.29-1.7 -1.24-1.21 1.71-0.25 0.77-1.55 0.77 1.55 1.71 0.25 -1.24 1.21L198.2 172.94zM195.63 179.41l-1.53-0.8 -1.53 0.8 0.29-1.7 -1.24-1.21 1.71-0.25 0.77-1.55 0.77 1.55 1.71 0.25 -1.24 1.21L195.63 179.41zM190.63 173.05l-1.53-0.8 -1.53 0.8 0.29-1.7 -1.24-1.21 1.71-0.25 0.77-1.55 0.77 1.55 1.71 0.25 -1.24 1.21L190.63 173.05zM188.02 179.39l-1.53-0.8 -1.53 0.8 0.29-1.7 -1.24-1.21 1.71-0.25 0.77-1.55 0.77 1.55 1.71 0.25 -1.24 1.21L188.02 179.39zM182.44 172.46l-1.53-0.8 -1.53 0.8 0.29-1.7 -1.24-1.21 1.71-0.25 0.6-1.21 0.17-0.33 0.2 0.41 0.56 1.14 1.71 0.25 -1.24 1.21L182.44 172.46zM181.02 178.48l-1.53-0.8 -1.53 0.8 0.29-1.7 -1.24-1.21 1.71-0.25 0.76-1.55 0.77 1.55 1.71 0.25 -1.24 1.21L181.02 178.48zM174.02 163.41l1.71-0.25 0.77-1.55 0.77 1.55 1.71 0.25 -1.24 1.21 0.29 1.7 -1.53-0.8 -0.37 0.19 -1.16 0.61 0.23-1.33 0.07-0.38L174.02 163.41zM184.48 161.99l0.77 1.55 1.71 0.25 -1.24 1.21 0.29 1.7 -0.8-0.42 -0.73-0.38 -1.53 0.8 0.29-1.7 -1.24-1.21 1.71-0.25 0.13-0.25L184.48 161.99zM190.67 166.67l0.29-1.7 -1.24-1.21 1.71-0.25 0.77-1.55 0.77 1.55 1.71 0.25 -1.24 1.21 0.29 1.7 -1.53-0.8L190.67 166.67zM198.62 166.56l0.29-1.7 -1.24-1.21 1.71-0.25 0.77-1.55 0.77 1.55 1.71 0.25 -1.24 1.21 0.29 1.7 -1.53-0.8L198.62 166.56zM205.93 163.54l1.71-0.25 0.77-1.55 0.77 1.55 1.71 0.25 -1.24 1.21 0.29 1.7 -1.53-0.8 -1.53 0.8 0.29-1.7L205.93 163.54zM211.45 172.78l-1.53-0.8 -1.53 0.8 0.29-1.7 -1.24-1.21 1.71-0.25 0.77-1.55 0.77 1.55 1.71 0.25 -1.24 1.21L211.45 172.78zM215.89 197.2c-3.58 0-7.05-0.28-10.35-0.81h20.7C222.94 196.92 219.47 197.2 215.89 197.2zM233.9 194.62c-0.24 0.08-0.48 0.15-0.73 0.22h-3.44 -27.47 -3.66c-0.19-0.05-0.37-0.11-0.56-0.17 -1.23-0.38-2.42-0.8-3.56-1.25h5.02 3.49 26.02 3.49 4.8C236.21 193.85 235.08 194.25 233.9 194.62zM240.75 191.86H191.03c-0.87-0.45-1.71-0.92-2.51-1.42h54.74C242.46 190.94 241.62 191.41 240.75 191.86zM186.25 188.89c-0.6-0.46-1.17-0.93-1.71-1.42h62.69c-0.54 0.49-1.11 0.96-1.71 1.42H186.25zM253.72 185.91h-75.67c0.08-0.46 0.16-0.93 0.22-1.42h75.23C253.56 184.98 253.64 185.45 253.72 185.91zM253.38 182.94h-74.98c0.02-0.47 0.02-0.95 0-1.42h74.97C253.36 181.99 253.36 182.46 253.38 182.94zM256.66 176.98c-0.21-0.06-0.42-0.09-0.63-0.09 -0.21 0-0.43 0.04-0.63 0.09h-40.61v-1.42h43.13c0.15 0.51-0.04 0.89-0.17 1.08 -0.06 0.08-0.19 0.23-0.38 0.34H256.66zM257.46 174.01h-42.67v-1.42h42.36C257.23 173.05 257.33 173.52 257.46 174.01zM256.95 171.03h-42.16v-1.42h42.11C256.9 170.08 256.92 170.56 256.95 171.03zM256.97 168.06h-5.61 -3.2 -33.36v-1.42h32.07 7.66 2.59C257.05 167.12 257 167.59 256.97 168.06zM261.85 163.82c-0.87 0.3-1.75 0.56-2.62 0.79 -0.46 0.03-0.89 0.2-1.25 0.47h-1.3 -9.9 -32v-1.42h32.56 11.04 3.34C261.77 163.72 261.81 163.77 261.85 163.82zM260.14 162.11h-9.46 -35.89v-1.42h38.9 5.97c0.23 0.41 0.48 0.81 0.74 1.2 0.05 0.08 0.1 0.15 0.16 0.22H260.14z"/>
  <path fill="#808080" d="M272.19 192.02c-0.57-1.69-1.06-3.4-1.48-5.12 -0.56-2.29 0.35-5.28 8.07-0.18 2.21-1.65 4.43-3.24 6.55-4.82 4.79-3.56 1.61 7.5 1.09 9.77 1.75 1.05 9.79 4.52 4.23 5.55 -1.9 0.35-3.79 0.67-5.68 0.95 -0.47 2.21-0.93 4.41-1.32 6.63 -0.42 2.35-3.26 3.97-8.36-5.56 -2.28 0.17-4.57 0.29-6.9 0.3C264.03 199.58 269.13 194.72 272.19 192.02z"/>
  <path fill="#808080" d="M146.73 108.15c1.77 0.18 3.54 0.44 5.27 0.76 2.32 0.43 4.67 2.5-3.16 7.42 0.59 2.7 1.13 5.38 1.68 7.95 1.26 5.83-7.5-1.63-9.35-3.04 -1.68 1.16-8.16 7.05-6.8 1.56 0.47-1.88 0.96-3.73 1.48-5.56 -1.81-1.34-3.64-2.66-5.49-3.94 -1.97-1.35-2.26-4.61 8.51-5.32 0.79-2.14 1.63-4.28 2.57-6.41C143.21 97.6 145.52 104.25 146.73 108.15z"/>
  <path fill="#808080" d="M160.34 196.26c0.57-1.69 1.06-3.4 1.48-5.12 0.56-2.29-0.35-5.28-8.07-0.18 -2.21-1.65-4.43-3.24-6.55-4.82 -4.79-3.56-1.61 7.5-1.09 9.77 -1.75 1.05-9.79 4.52-4.23 5.55 1.9 0.35 3.79 0.67 5.68 0.95 0.47 2.21 0.93 4.41 1.33 6.63 0.42 2.35 3.27 3.97 8.36-5.56 2.28 0.17 4.57 0.29 6.9 0.3C168.49 203.82 163.39 198.96 160.34 196.26z"/>
  <path fill="#808080" d="M278.24 104c-1.77 0.18-3.53 0.44-5.27 0.76 -2.32 0.43-4.67 2.5 3.16 7.42 -0.59 2.7-1.12 5.38-1.68 7.95 -1.26 5.83 7.5-1.63 9.35-3.04 1.68 1.16 8.16 7.05 6.8 1.56 -0.46-1.88-0.96-3.73-1.48-5.56 1.81-1.34 3.64-2.66 5.49-3.94 1.97-1.35 2.27-4.61-8.51-5.32 -0.79-2.14-1.63-4.28-2.57-6.41C281.76 93.45 279.44 100.11 278.24 104z"/>
  <path fill="#808080" d="M224.06 73.65c0.35-1.75 0.61-3.51 0.81-5.26 0.27-2.35-1.03-5.2-8.02 0.85 -2.4-1.35-4.82-2.65-7.11-3.93 -5.21-2.91-0.63 7.65 0.18 9.83 -1.6 1.27-9.13 5.74-3.48 6.04 1.93 0.1 3.85 0.18 5.75 0.22 0.75 2.13 1.49 4.26 2.17 6.4 0.72 2.28 3.75 3.52 7.58-6.58 2.28-0.13 4.57-0.3 6.88-0.58C233.12 80.1 227.44 75.94 224.06 73.65z"/>
</svg>
